<svg xmlns="http://www.w3.org/2000/svg" width="900" height="1600" viewBox="0 0 900 1600" font-family="Arial, Helvetica, sans-serif">

  <!-- Background -->
  <rect width="900" height="1600" fill="#ffffff"/>

  <!-- Title -->
  <rect x="0" y="0" width="900" height="52" fill="#26215C"/>
  <text x="450" y="33" text-anchor="middle" font-size="18" font-weight="bold" fill="#ffffff">AURIX TC2xx – QSPI Clock Chain &amp; Key Parameters</text>

  <defs>
    <marker id="arr" viewBox="0 0 10 10" refX="8" refY="5" markerWidth="6" markerHeight="6" orient="auto-start-reverse">
      <path d="M2 1L8 5L2 9" fill="none" stroke="#888780" stroke-width="1.5" stroke-linecap="round" stroke-linejoin="round"/>
    </marker>
  </defs>

  <text x="450" y="80" text-anchor="middle" font-size="12" fill="#888780">Clock chain: fOSC → PLL → fCPU → fSPB → fQSPI → fSCLK (baud)</text>

  <!-- Crystal Oscillator -->
  <rect x="300" y="92" width="300" height="48" rx="8" fill="#F1EFE8" stroke="#5F5E5A" stroke-width="1"/>
  <text x="450" y="112" text-anchor="middle" font-size="13" font-weight="bold" fill="#444441">Crystal Oscillator</text>
  <text x="450" y="129" text-anchor="middle" font-size="11" fill="#5F5E5A">fOSC = 20 MHz (typical external)</text>

  <line x1="450" y1="140" x2="450" y2="162" stroke="#888780" stroke-width="1.5" marker-end="url(#arr)"/>
  <text x="462" y="155" font-size="10" fill="#888780">x N  (PLL multiply)</text>

  <!-- System PLL -->
  <rect x="300" y="162" width="300" height="48" rx="8" fill="#EEEDFE" stroke="#534AB7" stroke-width="1"/>
  <text x="450" y="182" text-anchor="middle" font-size="13" font-weight="bold" fill="#3C3489">System PLL  (fPLL)</text>
  <text x="450" y="199" text-anchor="middle" font-size="11" fill="#534AB7">up to 300 MHz  (TC27x / TC29x)</text>

  <line x1="450" y1="210" x2="450" y2="232" stroke="#888780" stroke-width="1.5" marker-end="url(#arr)"/>
  <text x="462" y="226" font-size="10" fill="#888780">÷ k</text>

  <!-- fCPU -->
  <rect x="300" y="232" width="300" height="48" rx="8" fill="#EEEDFE" stroke="#534AB7" stroke-width="1"/>
  <text x="450" y="252" text-anchor="middle" font-size="13" font-weight="bold" fill="#3C3489">CPU Clock  (fCPU)</text>
  <text x="450" y="269" text-anchor="middle" font-size="11" fill="#534AB7">up to 200 MHz  (TC27x)</text>

  <path d="M390 280 L260 304" fill="none" stroke="#888780" stroke-width="1.5" marker-end="url(#arr)"/>
  <path d="M510 280 L640 304" fill="none" stroke="#888780" stroke-width="1.5" marker-end="url(#arr)"/>

  <!-- fSRI -->
  <rect x="110" y="304" width="260" height="48" rx="8" fill="#EEEDFE" stroke="#534AB7" stroke-width="1"/>
  <text x="240" y="324" text-anchor="middle" font-size="13" font-weight="bold" fill="#3C3489">SRI Bus  (fSRI)</text>
  <text x="240" y="341" text-anchor="middle" font-size="11" fill="#534AB7">up to 200 MHz  |  core interconnect</text>

  <!-- fSPB -->
  <rect x="530" y="304" width="260" height="48" rx="8" fill="#EEEDFE" stroke="#534AB7" stroke-width="1"/>
  <text x="660" y="324" text-anchor="middle" font-size="13" font-weight="bold" fill="#3C3489">SPB Bus  (fSPB)</text>
  <text x="660" y="341" text-anchor="middle" font-size="11" fill="#534AB7">up to 100 MHz  |  peripheral bus</text>

  <line x1="660" y1="352" x2="660" y2="370" stroke="#888780" stroke-width="1.5"/>
  <path d="M660 370 L510 394" fill="none" stroke="#888780" stroke-width="1.5" marker-end="url(#arr)"/>
  <text x="662" y="386" font-size="10" fill="#888780">÷ 1..4  (QSPI prescaler)</text>

  <!-- fQSPI -->
  <rect x="300" y="394" width="300" height="48" rx="8" fill="#FAEEDA" stroke="#854F0B" stroke-width="1"/>
  <text x="450" y="414" text-anchor="middle" font-size="13" font-weight="bold" fill="#633806">QSPI Module Clock  (fQSPI)</text>
  <text x="450" y="431" text-anchor="middle" font-size="11" fill="#854F0B">up to 100 MHz  =  fSPB / prescaler</text>

  <line x1="450" y1="442" x2="450" y2="464" stroke="#888780" stroke-width="1.5" marker-end="url(#arr)"/>
  <text x="462" y="458" font-size="10" fill="#888780">÷ (Q+1)  (baud divider)</text>

  <!-- fSCLK -->
  <rect x="300" y="464" width="300" height="60" rx="8" fill="#FAEEDA" stroke="#854F0B" stroke-width="1.5"/>
  <text x="450" y="484" text-anchor="middle" font-size="13" font-weight="bold" fill="#633806">QSPI Baud Rate  (fSCLK)</text>
  <text x="450" y="501" text-anchor="middle" font-size="11" fill="#854F0B">fQSPI / (Q+1)  |  max 50 MHz SCK</text>
  <text x="450" y="516" text-anchor="middle" font-size="11" fill="#854F0B">e.g.  100 MHz / 2  =  50 MHz SCK</text>

  <line x1="450" y1="524" x2="450" y2="546" stroke="#888780" stroke-width="1.5" marker-end="url(#arr)"/>

  <!-- QSPI HW modules -->
  <rect x="60" y="546" width="240" height="60" rx="8" fill="#E1F5EE" stroke="#0F6E56" stroke-width="1"/>
  <text x="180" y="568" text-anchor="middle" font-size="13" font-weight="bold" fill="#085041">QSPI 0</text>
  <text x="180" y="585" text-anchor="middle" font-size="11" fill="#0F6E56">master/slave  |  50 Mbit/s max</text>
  <text x="180" y="599" text-anchor="middle" font-size="10" fill="#0F6E56">FIFO 16x TX / 16x RX</text>

  <rect x="330" y="546" width="240" height="60" rx="8" fill="#E1F5EE" stroke="#0F6E56" stroke-width="1"/>
  <text x="450" y="568" text-anchor="middle" font-size="13" font-weight="bold" fill="#085041">QSPI 1 / 2</text>
  <text x="450" y="585" text-anchor="middle" font-size="11" fill="#0F6E56">master/slave  |  50 Mbit/s max</text>
  <text x="450" y="599" text-anchor="middle" font-size="10" fill="#0F6E56">FIFO 16x TX / 16x RX</text>

  <rect x="600" y="546" width="240" height="60" rx="8" fill="#E1F5EE" stroke="#0F6E56" stroke-width="1"/>
  <text x="720" y="568" text-anchor="middle" font-size="13" font-weight="bold" fill="#085041">QSPI 3</text>
  <text x="720" y="585" text-anchor="middle" font-size="11" fill="#0F6E56">master/slave  |  50 Mbit/s max</text>
  <text x="720" y="599" text-anchor="middle" font-size="10" fill="#0F6E56">FIFO 16x TX / 16x RX</text>

  <path d="M390 524 L180 546" fill="none" stroke="#888780" stroke-width="1" stroke-dasharray="4 3"/>
  <path d="M450 524 L450 546" fill="none" stroke="#888780" stroke-width="1" stroke-dasharray="4 3"/>
  <path d="M510 524 L720 546" fill="none" stroke="#888780" stroke-width="1" stroke-dasharray="4 3"/>

  <!-- Divider -->
  <line x1="40" y1="628" x2="860" y2="628" stroke="#D3D1C7" stroke-width="1.5" stroke-dasharray="6 4"/>
  <text x="450" y="648" text-anchor="middle" font-size="13" font-weight="bold" fill="#26215C">Key Parameters Reference – AURIX TC2xx QSPI</text>

  <!-- Table header -->
  <rect x="40" y="658" width="280" height="30" rx="4" fill="#26215C"/>
  <rect x="326" y="658" width="534" height="30" rx="4" fill="#26215C"/>
  <text x="180" y="678" text-anchor="middle" font-size="12" font-weight="bold" fill="#ffffff">Parameter</text>
  <text x="593" y="678" text-anchor="middle" font-size="12" font-weight="bold" fill="#ffffff">Value / Range</text>

  <rect x="40" y="688" width="280" height="30" fill="#F1EFE8" stroke="#D3D1C7" stroke-width="0.5"/>
  <rect x="326" y="688" width="534" height="30" fill="#F1EFE8" stroke="#D3D1C7" stroke-width="0.5"/>
  <text x="55" y="708" font-size="11" font-weight="bold" fill="#3C3489">fOSC – crystal oscillator</text>
  <text x="341" y="708" font-size="11" fill="#444441">20 MHz (typical external quartz crystal)</text>

  <rect x="40" y="718" width="280" height="30" fill="#ffffff" stroke="#D3D1C7" stroke-width="0.5"/>
  <rect x="326" y="718" width="534" height="30" fill="#ffffff" stroke="#D3D1C7" stroke-width="0.5"/>
  <text x="55" y="738" font-size="11" font-weight="bold" fill="#3C3489">fPLL – system PLL output</text>
  <text x="341" y="738" font-size="11" fill="#444441">up to 300 MHz  (TC27x / TC29x variants)</text>

  <rect x="40" y="748" width="280" height="30" fill="#F1EFE8" stroke="#D3D1C7" stroke-width="0.5"/>
  <rect x="326" y="748" width="534" height="30" fill="#F1EFE8" stroke="#D3D1C7" stroke-width="0.5"/>
  <text x="55" y="768" font-size="11" font-weight="bold" fill="#3C3489">fCPU – CPU core clock</text>
  <text x="341" y="768" font-size="11" fill="#444441">up to 200 MHz  (TC27x),  up to 300 MHz (TC29x)</text>

  <rect x="40" y="778" width="280" height="30" fill="#ffffff" stroke="#D3D1C7" stroke-width="0.5"/>
  <rect x="326" y="778" width="534" height="30" fill="#ffffff" stroke="#D3D1C7" stroke-width="0.5"/>
  <text x="55" y="798" font-size="11" font-weight="bold" fill="#3C3489">fSRI – system resource bus</text>
  <text x="341" y="798" font-size="11" fill="#444441">up to 200 MHz  |  CPU-to-memory interconnect</text>

  <rect x="40" y="808" width="280" height="30" fill="#F1EFE8" stroke="#D3D1C7" stroke-width="0.5"/>
  <rect x="326" y="808" width="534" height="30" fill="#F1EFE8" stroke="#D3D1C7" stroke-width="0.5"/>
  <text x="55" y="828" font-size="11" font-weight="bold" fill="#3C3489">fSPB – peripheral bus clock</text>
  <text x="341" y="828" font-size="11" fill="#444441">up to 100 MHz  =  fCPU / 2  (typical config)</text>

  <rect x="40" y="838" width="280" height="30" fill="#ffffff" stroke="#D3D1C7" stroke-width="0.5"/>
  <rect x="326" y="838" width="534" height="30" fill="#ffffff" stroke="#D3D1C7" stroke-width="0.5"/>
  <text x="55" y="858" font-size="11" font-weight="bold" fill="#633806">fQSPI – QSPI module clock</text>
  <text x="341" y="858" font-size="11" fill="#444441">fSPB / prescaler(1..4)  →  up to 100 MHz</text>

  <rect x="40" y="868" width="280" height="30" fill="#F1EFE8" stroke="#D3D1C7" stroke-width="0.5"/>
  <rect x="326" y="868" width="534" height="30" fill="#F1EFE8" stroke="#D3D1C7" stroke-width="0.5"/>
  <text x="55" y="888" font-size="11" font-weight="bold" fill="#633806">fSCLK – SPI baud rate (SCK pin)</text>
  <text x="341" y="888" font-size="11" fill="#444441">fQSPI / (Q+1)  |  max 50 MHz on wire</text>

  <rect x="40" y="898" width="280" height="30" fill="#ffffff" stroke="#D3D1C7" stroke-width="0.5"/>
  <rect x="326" y="898" width="534" height="30" fill="#ffffff" stroke="#D3D1C7" stroke-width="0.5"/>
  <text x="55" y="918" font-size="11" font-weight="bold" fill="#085041">QSPI instances</text>
  <text x="341" y="918" font-size="11" fill="#444441">4 modules: QSPI0, QSPI1, QSPI2, QSPI3  (TC27x)</text>

  <rect x="40" y="928" width="280" height="30" fill="#F1EFE8" stroke="#D3D1C7" stroke-width="0.5"/>
  <rect x="326" y="928" width="534" height="30" fill="#F1EFE8" stroke="#D3D1C7" stroke-width="0.5"/>
  <text x="55" y="948" font-size="11" font-weight="bold" fill="#085041">TX / RX FIFO depth</text>
  <text x="341" y="948" font-size="11" fill="#444441">16 entries each per QSPI module</text>

  <rect x="40" y="958" width="280" height="30" fill="#ffffff" stroke="#D3D1C7" stroke-width="0.5"/>
  <rect x="326" y="958" width="534" height="30" fill="#ffffff" stroke="#D3D1C7" stroke-width="0.5"/>
  <text x="55" y="978" font-size="11" font-weight="bold" fill="#085041">CS lines (SLSO)</text>
  <text x="341" y="978" font-size="11" fill="#444441">up to 15 HW chip selects per QSPI module</text>

  <rect x="40" y="988" width="280" height="30" fill="#F1EFE8" stroke="#D3D1C7" stroke-width="0.5"/>
  <rect x="326" y="988" width="534" height="30" fill="#F1EFE8" stroke="#D3D1C7" stroke-width="0.5"/>
  <text x="55" y="1008" font-size="11" font-weight="bold" fill="#085041">Data frame width</text>
  <text x="341" y="1008" font-size="11" fill="#444441">2 – 32 bits per frame  (configurable per Job)</text>

  <rect x="40" y="1018" width="280" height="30" fill="#ffffff" stroke="#D3D1C7" stroke-width="0.5"/>
  <rect x="326" y="1018" width="534" height="30" fill="#ffffff" stroke="#D3D1C7" stroke-width="0.5"/>
  <text x="55" y="1038" font-size="11" font-weight="bold" fill="#085041">SPI modes</text>
  <text x="341" y="1038" font-size="11" fill="#444441">CPOL/CPHA → Mode 0, 1, 2, 3  (all supported)</text>

  <rect x="40" y="1048" width="280" height="30" fill="#F1EFE8" stroke="#D3D1C7" stroke-width="0.5"/>
  <rect x="326" y="1048" width="534" height="30" fill="#F1EFE8" stroke="#D3D1C7" stroke-width="0.5"/>
  <text x="55" y="1068" font-size="11" font-weight="bold" fill="#085041">DMA support</text>
  <text x="341" y="1068" font-size="11" fill="#444441">DMA request triggered on TX/RX FIFO level threshold</text>

  <rect x="40" y="1078" width="280" height="30" fill="#ffffff" stroke="#D3D1C7" stroke-width="0.5"/>
  <rect x="326" y="1078" width="534" height="30" fill="#ffffff" stroke="#D3D1C7" stroke-width="0.5"/>
  <text x="55" y="1098" font-size="11" font-weight="bold" fill="#444441">Async handler modes</text>
  <text x="341" y="1098" font-size="11" fill="#444441">Interrupt  /  Polling (Spi_MainFunction)  /  DMA</text>

  <rect x="40" y="1108" width="280" height="30" fill="#F1EFE8" stroke="#D3D1C7" stroke-width="0.5"/>
  <rect x="326" y="1108" width="534" height="30" fill="#F1EFE8" stroke="#D3D1C7" stroke-width="0.5"/>
  <text x="55" y="1128" font-size="11" font-weight="bold" fill="#444441">Buffer type</text>
  <text x="341" y="1128" font-size="11" fill="#444441">IB (Internal, fixed size)  /  EB (External, runtime ptr)</text>

  <!-- Baud rate formula -->
  <line x1="40" y1="1152" x2="860" y2="1152" stroke="#D3D1C7" stroke-width="1.5" stroke-dasharray="6 4"/>
  <text x="450" y="1172" text-anchor="middle" font-size="13" font-weight="bold" fill="#26215C">Baud Rate Calculation Formula</text>
  <rect x="40" y="1182" width="820" height="110" rx="10" fill="#EEEDFE" stroke="#534AB7" stroke-width="1"/>
  <text x="60" y="1206" font-size="12" font-weight="bold" fill="#3C3489">Formula:</text>
  <text x="60" y="1224" font-size="12" font-family="Courier New, monospace" fill="#26215C">  fSCLK  =  fQSPI / (Q + 1)  =  fSPB / prescaler / (Q + 1)</text>
  <text x="60" y="1248" font-size="12" font-weight="bold" fill="#3C3489">Example A  (max speed):</text>
  <text x="60" y="1265" font-size="12" font-family="Courier New, monospace" fill="#26215C">  100 MHz (fSPB) / 1 (prescaler) / 2 (Q+1)  =  50 MHz SCK</text>
  <text x="460" y="1248" font-size="12" font-weight="bold" fill="#3C3489">Example B  (lower speed):</text>
  <text x="460" y="1265" font-size="12" font-family="Courier New, monospace" fill="#26215C">  100 MHz / 1 / 4  =  25 MHz SCK</text>

  <!-- Explanation -->
  <line x1="40" y1="1308" x2="860" y2="1308" stroke="#D3D1C7" stroke-width="1.5" stroke-dasharray="6 4"/>
  <text x="450" y="1328" text-anchor="middle" font-size="13" font-weight="bold" fill="#26215C">Clock Chain – Explanation</text>
  <rect x="40" y="1338" width="820" height="220" rx="10" fill="#F1EFE8" stroke="#B4B2A9" stroke-width="1"/>
  <text x="60" y="1360" font-size="12" font-weight="bold" fill="#26215C">1. fOSC – Crystal Oscillator (20 MHz)</text>
  <text x="60" y="1378" font-size="11" fill="#444441">  The on-board quartz crystal provides a stable 20 MHz reference clock to the PLL. This is the root of the entire</text>
  <text x="60" y="1393" font-size="11" fill="#444441">  clock tree. The exact frequency depends on the board crystal chosen.</text>
  <text x="60" y="1413" font-size="12" font-weight="bold" fill="#26215C">2. fPLL – System PLL (up to 300 MHz)</text>
  <text x="60" y="1431" font-size="11" fill="#444441">  The PLL multiplies fOSC to generate the high-speed system clock. On TC27x max is 300 MHz. Configured via</text>
  <text x="60" y="1446" font-size="11" fill="#444441">  SCU_PLLCON registers (NDIV, PDIV, KDIV).</text>
  <text x="60" y="1466" font-size="12" font-weight="bold" fill="#26215C">3. fCPU → fSRI / fSPB split</text>
  <text x="60" y="1484" font-size="11" fill="#444441">  fCPU feeds two buses: the SRI bus (same speed, for CPU-to-SRAM/Flash) and the SPB peripheral bus (half speed,</text>
  <text x="60" y="1499" font-size="11" fill="#444441">  100 MHz max), which clocks all peripherals including QSPI.</text>
  <text x="60" y="1519" font-size="12" font-weight="bold" fill="#26215C">4. fQSPI – QSPI Module Clock  |  5. fSCLK – Actual SPI Baud Rate</text>
  <text x="60" y="1537" font-size="11" fill="#444441">  The QSPI prescaler (div 1–4) divides fSPB to give fQSPI. The baud divider register (Q) then gives the final SCK</text>
  <text x="60" y="1552" font-size="11" fill="#444441">  frequency on the physical SCLK pin. Maximum SCK = 50 MHz. Each Job can have a different baud setting.</text>

  <!-- Footer -->
  <rect x="0" y="1580" width="900" height="20" fill="#26215C"/>
  <text x="450" y="1594" text-anchor="middle" font-size="10" fill="#AFA9EC">AURIX TC2xx  |  AUTOSAR SPI / QSPI  |  Clock Chain Reference</text>

</svg>